<?xml version="1.0" encoding="UTF-8"?>
<svg width="16px" height="16px" viewBox="0 0 16 16" version="1.1" xmlns="http://www.w3.org/2000/svg" xmlns:xlink="http://www.w3.org/1999/xlink">
    <title>time-circle-fill</title>
    <g id="页面-1" stroke="none" stroke-width="1" fill="none" fill-rule="evenodd">
        <g id="先知系统数字驾驶舱" transform="translate(-628.000000, -202.000000)" fill-rule="nonzero">
            <g id="编组-26" transform="translate(574.000000, 112.000000)">
                <g id="编组-6" transform="translate(42.000000, 12.000000)">
                    <g id="编组-7备份" transform="translate(12.000000, 77.000000)">
                        <g id="time-circle-fill" transform="translate(0.000000, 1.000000)">
                            <rect id="矩形" fill="#000000" opacity="0" x="0" y="0" width="16" height="16"></rect>
                            <path d="M8,2 C4.68660714,2 2,4.68660714 2,8 C2,11.3133929 4.68660714,14 8,14 C11.3133929,14 14,11.3133929 14,8 C14,4.68660714 11.3133929,2 8,2 Z M10.3638393,9.84419643 L9.98080357,10.3665179 C9.94598214,10.4147321 9.87901786,10.4241071 9.83080357,10.3892857 L7.615625,8.77410714 C7.5875,8.75401786 7.57142857,8.721875 7.57142857,8.68705357 L7.57142857,5 C7.57142857,4.94107143 7.61964286,4.89285714 7.67857143,4.89285714 L8.32276786,4.89285714 C8.38169643,4.89285714 8.42991071,4.94107143 8.42991071,5 L8.42991071,8.31473214 L10.3397321,9.69553571 C10.3879464,9.72901786 10.3986607,9.79598214 10.3638393,9.84419643 Z" id="形状" fill="#DADFE4"></path>
                        </g>
                    </g>
                </g>
            </g>
        </g>
    </g>
</svg>