<?xml version="1.0" encoding="UTF-8"?>
<svg width="16px" height="16px" viewBox="0 0 16 16" version="1.1" xmlns="http://www.w3.org/2000/svg" xmlns:xlink="http://www.w3.org/1999/xlink">
    <title>编组 9</title>
    <g id="页面-1" stroke="none" stroke-width="1" fill="none" fill-rule="evenodd">
        <g id="先知系统数字驾驶舱" transform="translate(-628.000000, -228.000000)" fill-rule="nonzero">
            <g id="编组-26" transform="translate(574.000000, 112.000000)">
                <g id="编组-6" transform="translate(42.000000, 12.000000)">
                    <g id="编组-10" transform="translate(12.000000, 103.000000)">
                        <g id="编组-9" transform="translate(0.000000, 1.000000)">
                            <rect id="矩形" fill="#000000" opacity="0" x="0" y="0" width="16" height="16"></rect>
                            <g id="编组" transform="translate(1.000000, 1.000000)" fill="#DADFE4">
                                <path d="M13.8858696,8.94559763 C13.6956522,8.69012318 13.3786232,8.62625456 13.125,8.75399179 L6.97463768,12.7777144 L0.887681159,8.8178604 C0.634057971,8.62625456 0.253623188,8.75399179 0.126811594,9.00946624 C-0.0634057971,9.26494069 0.0634057971,9.64815237 0.317028986,9.7758896 L6.72101449,13.9273495 C6.78442029,13.9273495 6.78442029,13.9912181 6.84782609,13.9912181 L7.10144928,13.9912181 C7.16485507,13.9912181 7.22826087,13.9273495 7.22826087,13.9273495 L13.6322464,9.7758896 C13.9492754,9.58428376 14.0126812,9.20107208 13.8858696,8.94559763 Z M13.8858696,6.64632755 C13.6956522,6.3908531 13.3786232,6.32698449 13.125,6.45472172 L6.97463768,10.4784443 L0.887681159,6.51859033 C0.634057971,6.32698449 0.253623188,6.45472172 0.126811594,6.71019617 C-0.0634057971,6.96567062 0.0634057971,7.3488823 0.317028986,7.47661953 L6.72101449,11.6280794 C6.78442029,11.6280794 6.78442029,11.691948 6.84782609,11.691948 L7.10144928,11.691948 C7.16485507,11.691948 7.22826087,11.6280794 7.22826087,11.6280794 L13.6322464,7.47661953 C13.9492754,7.28501369 14.0126812,6.96567062 13.8858696,6.64632755 L13.8858696,6.64632755 Z M13.6956522,4.21932026 L7.29166667,0.0678604015 C7.22826087,0.0678604015 7.22826087,0.00399178832 7.16485507,0.00399178832 L6.91123188,0.00399178832 C6.84782609,0.00399178832 6.78442029,0.0678604015 6.78442029,0.0678604015 L0.253623188,4.15545164 C0.0634057971,4.28318887 0,4.47479471 0,4.66640055 C0,4.85800639 0.0634057971,5.04961223 0.253623188,5.17734945 L6.6576087,9.32880931 C6.72101449,9.32880931 6.72101449,9.39267792 6.78442029,9.39267792 L7.03804348,9.39267792 C7.10144928,9.39267792 7.16485507,9.32880931 7.16485507,9.32880931 L13.5688406,5.17734945 C13.8858696,5.04961223 13.9492754,4.85800639 13.9492754,4.66640055 C13.9492754,4.47479471 13.8858696,4.28318887 13.6956522,4.21932026 L13.6956522,4.21932026 Z" id="形状"></path>
                            </g>
                        </g>
                    </g>
                </g>
            </g>
        </g>
    </g>
</svg>